<svg xmlns="http://www.w3.org/2000/svg" xmlns:xlink="http://www.w3.org/1999/xlink" width="4000" zoomAndPan="magnify" viewBox="0 0 3000 2999.999989" height="4000" preserveAspectRatio="xMidYMid meet" version="1.0"><defs><g/><clipPath id="f448c51987"><path d="M 0.960938 741 L 396 741 L 396 2053 L 0.960938 2053 Z M 0.960938 741 " clip-rule="nonzero"/></clipPath><clipPath id="491cc1af56"><rect x="0" width="396" y="0" height="1312"/></clipPath><clipPath id="0869d3a0a8"><path d="M 560 22 L 2522 22 L 2522 2546 L 560 2546 Z M 560 22 " clip-rule="nonzero"/></clipPath><clipPath id="5fabec96a1"><path d="M 253.585938 819.824219 L 2489.859375 -4.28125 L 3313.960938 2231.992188 L 1077.6875 3056.097656 Z M 253.585938 819.824219 " clip-rule="nonzero"/></clipPath><clipPath id="75f8743a2b"><path d="M 253.585938 819.824219 L 2489.859375 -4.28125 L 3313.960938 2231.992188 L 1077.6875 3056.097656 Z M 253.585938 819.824219 " clip-rule="nonzero"/></clipPath><clipPath id="6db24edfa3"><rect x="0" width="2784" y="0" height="2816"/></clipPath></defs><g transform="matrix(1, 0, 0, 1, 216, 184)"><g clip-path="url(#6db24edfa3)"><g clip-path="url(#f448c51987)"><g transform="matrix(1, 0, 0, 1, 0, 741)"><g clip-path="url(#491cc1af56)"><g fill="#05d37e" fill-opacity="1"><g transform="translate(1.158555, 983.661468)"><g><path d="M 201.234375 13.0625 C 151.578125 13.0625 110.628906 -0.65625 78.390625 -28.09375 C 46.160156 -55.53125 30.046875 -90.59375 30.046875 -133.28125 C 30.046875 -176.84375 46.160156 -212.125 78.390625 -239.125 C 110.628906 -266.132812 151.578125 -279.640625 201.234375 -279.640625 C 251.753906 -279.640625 293.128906 -266.132812 325.359375 -239.125 C 357.597656 -212.125 373.71875 -176.84375 373.71875 -133.28125 C 373.71875 -90.59375 357.597656 -55.53125 325.359375 -28.09375 C 293.128906 -0.65625 251.753906 13.0625 201.234375 13.0625 Z M 201.234375 13.0625 "/></g></g></g></g></g></g><g clip-path="url(#0869d3a0a8)"><g clip-path="url(#5fabec96a1)"><g clip-path="url(#75f8743a2b)"><path fill="#171416" d="M 1949.097656 1159.285156 C 1942.574219 1166.9375 1935.863281 1174.4375 1929.554688 1182.269531 C 1828.8125 1307.40625 1727.449219 1432.042969 1627.8125 1558.050781 C 1594.09375 1600.695312 1552.605469 1623.46875 1498.878906 1628.507812 C 1216.773438 1654.96875 934.710938 1681.828125 652.683594 1709.089844 C 609.578125 1713.191406 580.226562 1697.414062 566.355469 1663.75 C 552.464844 1630.039062 562.167969 1597.949219 594.714844 1570.285156 C 1120.1875 1123.78125 1645.664062 677.28125 2171.140625 230.78125 C 2243.125 169.617188 2315.457031 108.855469 2386.800781 46.949219 C 2413.375 23.890625 2441.621094 14.292969 2474.234375 29.378906 C 2506.847656 44.460938 2517.417969 72.328125 2517.460938 107.417969 C 2518.09375 699.9375 2519.03125 1292.457031 2520.277344 1884.976562 C 2520.617188 2076.472656 2520.972656 2267.972656 2521.347656 2459.46875 C 2521.425781 2502.054688 2503.074219 2530.414062 2468.4375 2541.570312 C 2433.800781 2552.726562 2402.65625 2540.625 2377.847656 2505.21875 C 2215.738281 2273.875 2053.636719 2042.53125 1891.539062 1811.183594 C 1858.789062 1764.640625 1849.257812 1716.445312 1860.65625 1660.21875 C 1892.066406 1505.3125 1920.363281 1349.773438 1949.84375 1194.46875 C 1951.882812 1183.734375 1953.5 1172.921875 1955.316406 1162.144531 Z M 1949.097656 1159.285156 " fill-opacity="1" fill-rule="nonzero"/></g></g></g></g></g></svg>